
        <svg xmlns="http://www.w3.org/2000/svg" xmlns:xlink="http://www.w3.org/1999/xlink" version="1.1" width="3145.274855459814" 
        height="426.42330309081706" viewBox="0 0 3145.274855459814 426.42330309081706">
			
			<g transform="scale(7.263742772990695) translate(10, 10)">
				<defs id="SvgjsDefs1124"></defs><g id="SvgjsG1125" featureKey="nameLeftFeature-0" transform="matrix(1.1429701460681654,0,0,1.1429701460681654,-1.0412455458230783,4.352500132310609)" fill="#111111"><path d="M4.9862 20.129 c-2.3166 0 -4.0752 -1.3068 -4.0752 -2.8026 c0 -0.7228 0.391 -1.1594 0.87298 -1.1594 c0.3704 0 0.8042 0.2456 0.8042 0.7642 c0 0.649 -0.7158 0.771 -0.7158 1.271 c0 0.9118 1.7248 1.5794 2.9482 1.5794 c1.9634 0 3.5116 -1.0248 3.5116 -2.8716 c0 -3.653 -7.129 -2.3648 -7.129 -6.904 c0 -1.7704 1.4062 -3.3146 4.1862 -3.3146 c2.2338 0 4.038 1.2214 4.038 2.7008 c0 0.7352 -0.391 1.1758 -0.869 1.1758 c-0.3744 0 -0.8082 -0.2496 -0.8082 -0.7682 c0 -0.6656 0.7118 -0.7546 0.7118 -1.2546 c0 -0.8994 -1.7248 -1.5062 -2.944 -1.5062 c-1.52 0 -3.1614 0.5406 -3.1614 2.5212 c0 3.2952 7.3276 2.1958 7.3276 6.9206 c0 1.6172 -1.4186 3.6482 -4.698 3.6482 z M17.8544 6.695 c3.7924 0 5.998 2.8256 5.998 6.6456 s-2.2056 6.7882 -5.998 6.7882 c-3.7966 0 -5.998 -2.9682 -5.998 -6.7882 s2.2014 -6.6456 5.998 -6.6456 z M17.8544 19.78558 c3.0958 0 4.1888 -3.0848 4.1888 -6.4448 s-1.093 -6.302 -4.1888 -6.302 s-4.1888 2.942 -4.1888 6.302 s1.093 6.4448 4.1888 6.4448 z M37.074 6.82 c0.093204 0 0.15809 0.064844 0.15809 0.15385 c0 0.093008 -0.064804 0.15781 -0.15801 0.15781 l-0.51801 0 c-0.2972 0 -0.48202 0.229 -0.48202 0.478 l0 7.6876 c0 3.5856 -2.1406 4.8318 -4.6296 4.8318 c-2.0366 0 -4.7248 -0.878 -4.7248 -4.8952 l0 -7.6242 c0 -0.249 -0.1848 -0.478 -0.48202 -0.478 l-0.51801 0 c-0.093008 0 -0.15781 -0.064804 -0.15781 -0.15381 c0 -0.093204 0.064804 -0.15801 0.15781 -0.15801 l3.7028 0 c0.093008 0 0.15781 0.064804 0.15781 0.15801 c0 0.089004 -0.064804 0.15381 -0.15781 0.15381 l-0.51801 0 c-0.2972 0 -0.48202 0.229 -0.48202 0.478 l0 7.9076 c0 3.1476 1.5538 4.1496 3.4386 4.1496 c2.0592 0 3.8682 -1.1882 3.8682 -4.324 l0 -7.7332 c0 -0.249 -0.1848 -0.478 -0.48202 -0.478 l-0.51801 0 c-0.093008 0 -0.15781 -0.064804 -0.15781 -0.15781 c0 -0.089004 0.064804 -0.15381 0.15781 -0.15381 l2.3448 0 z M49.196 19.1628 c0.084804 0 0.13701 0.060606 0.13701 0.14121 c0 0.2382 -0.7188 0.82282 -1.6434 0.82282 c-3.9444 0 -0.1292 -6.491 -5.642 -6.491 l-0.70439 0 l0 5.589 c0 0.2436 0.1898 0.4636 0.48122 0.4636 l0.51801 0 c0.093008 0 0.15781 0.064804 0.15781 0.15381 c0 0.093204 -0.064804 0.15801 -0.15781 0.15801 l-3.702 0 c-0.093008 0 -0.15781 -0.064804 -0.15781 -0.15801 c0 -0.089004 0.064804 -0.15381 0.15781 -0.15381 l0.51801 0 c0.2906 0 0.48122 -0.2178 0.48122 -0.4618 l0 -11.631 c0 -0.2444 -0.1898 -0.4634 -0.48122 -0.4634 l-0.51801 0 c-0.093008 0 -0.15781 -0.064804 -0.15781 -0.15381 c0 -0.093204 0.064804 -0.15801 0.15781 -0.15801 l4.3834 0 c2.651 0 4.442 1.042 4.442 3.162 c0 1.87 -1.4616 3.1526 -3.9212 3.472 c5.22 0.72 2.6854 6.175 4.6562 6.175 c0.6186 0 0.802 -0.4662 0.9952 -0.4662 z M41.342999999999996 13.32 l1.0738 0.00019531 c2.4718 0 3.269 -1.758 3.269 -3.3132 c0 -1.7808 -0.8594 -2.8752 -3.1138 -2.8752 l-0.74779 0 c-0.2906 0 -0.48122 0.219 -0.48122 0.4618 l0 5.7264 z M54.5696 6.82 c4.167 0 7.3572 1.6604 7.3572 6.5004 c0 3.8 -2.831 6.68 -7.358 6.68 l-4.4688 0 c-0.093008 0 -0.15781 -0.064804 -0.15781 -0.15801 c0 -0.089004 0.064804 -0.15381 0.15781 -0.15381 l0.51801 0 c0.2906 0 0.48122 -0.219 0.48122 -0.4618 l0 -11.631 c0 -0.2436 -0.1898 -0.4636 -0.48122 -0.4636 l-0.51801 0 c-0.093008 0 -0.15781 -0.064804 -0.15781 -0.15381 c0 -0.093204 0.064804 -0.15801 0.15781 -0.15801 l4.4696 0 z M54.5688 19.68864 c2.8572 0 5.5498 -2.2286 5.5498 -6.3686 c0 -4.18 -2.4718 -6.1882 -5.549 -6.1882 l-1.2856 0 c-0.2906 0 -0.48122 0.219 -0.48122 0.4618 l0 11.631 c0 0.2436 0.1898 0.4636 0.48122 0.4636 l1.2848 0 z M70.1144 6.695 c3.7924 0 5.998 2.8256 5.998 6.6456 s-2.2056 6.7882 -5.998 6.7882 c-3.7966 0 -5.998 -2.9682 -5.998 -6.7882 s2.2014 -6.6456 5.998 -6.6456 z M70.1144 19.78558 c3.0958 0 4.1888 -3.0848 4.1888 -6.4448 s-1.093 -6.302 -4.1888 -6.302 s-4.1888 2.942 -4.1888 6.302 s1.093 6.4448 4.1888 6.4448 z M89.334 6.82 c0.093204 0 0.15809 0.064844 0.15809 0.15385 c0 0.093008 -0.064804 0.15781 -0.15801 0.15781 l-0.51801 0 c-0.2972 0 -0.48202 0.229 -0.48202 0.478 l0 7.6876 c0 3.5856 -2.1406 4.8318 -4.6296 4.8318 c-2.0366 0 -4.7248 -0.878 -4.7248 -4.8952 l0 -7.6242 c0 -0.249 -0.1848 -0.478 -0.48202 -0.478 l-0.51801 0 c-0.093008 0 -0.15781 -0.064804 -0.15781 -0.15381 c0 -0.093204 0.064804 -0.15801 0.15781 -0.15801 l3.7028 0 c0.093008 0 0.15781 0.064804 0.15781 0.15801 c0 0.089004 -0.064804 0.15381 -0.15781 0.15381 l-0.51801 0 c-0.2972 0 -0.48202 0.229 -0.48202 0.478 l0 7.9076 c0 3.1476 1.5538 4.1496 3.4386 4.1496 c2.0592 0 3.8682 -1.1882 3.8682 -4.324 l0 -7.7332 c0 -0.249 -0.1848 -0.478 -0.48202 -0.478 l-0.51801 0 c-0.093008 0 -0.15781 -0.064804 -0.15781 -0.15781 c0 -0.089004 0.064804 -0.15381 0.15781 -0.15381 l2.3448 0 z M102.28 18.9262 c-1.4724 0.7772 -3.1086 1.2027 -4.5714 1.2027 c-3.627 0 -6.4918 -2.3932 -6.4918 -6.709 c0 -4.629 3.2076 -6.729 6.3538 -6.729 c2.5008 0 4.6276 1.342 4.6276 3.2296 c0 0.947 -0.5104 1.3484 -0.99658 1.3484 c-0.458 0 -0.89602 -0.333 -0.89602 -0.8834 c0 -0.7172 0.8442 -0.87442 0.8442 -1.4468 c0 -0.9544 -1.5842 -1.8874 -3.365 -1.8874 c-2.1972 0 -4.7592 1.4744 -4.7592 6.3688 c0 4.1386 2.138 6.3234 4.9904 6.3234 c0.793 0 1.6654 -0.171 2.5612 -0.51718 l0 -4.2392 c0 -0.249 -0.1848 -0.478 -0.48202 -0.478 l-1.3938 0 c-0.093008 0 -0.15781 -0.064804 -0.15781 -0.15381 c0 -0.093204 0.064804 -0.15801 0.15781 -0.15801 l3.5786 0 l0 4.729 z M116.924 19.6882 c0.093204 0 0.15762 0.06461 0.15762 0.15361 c0 0.093204 -0.064804 0.15801 -0.15781 0.15801 l-3.702 0 c-0.093008 0 -0.15781 -0.064804 -0.15781 -0.15801 c0 -0.089004 0.064804 -0.15381 0.15801 -0.15381 l0.51801 0 c0.2906 0 0.48122 -0.2178 0.48122 -0.4618 l0 -6.0362 l-6.7378 0 l0 6.0344 c0 0.2436 0.1898 0.4636 0.48122 0.4636 l0.51801 0 c0.093008 0 0.15781 0.064804 0.15781 0.15381 c0 0.093204 -0.064804 0.15801 -0.15781 0.15801 l-3.702 0 c-0.093008 0 -0.15781 -0.064804 -0.15781 -0.15801 c0 -0.089004 0.064804 -0.15381 0.15781 -0.15381 l0.51801 0 c0.2906 0 0.48122 -0.2178 0.48122 -0.4618 l0 -11.631 c0 -0.2444 -0.1898 -0.4634 -0.48122 -0.4634 l-0.51801 0 c-0.093008 0 -0.15781 -0.064804 -0.15781 -0.15381 c0 -0.093204 0.064804 -0.15801 0.15781 -0.15801 l3.702 0 c0.093008 0 0.15781 0.064804 0.15781 0.15801 c0 0.089004 -0.064804 0.15381 -0.15781 0.15381 l-0.51801 0 c-0.2906 0 -0.48122 0.219 -0.48122 0.4618 l0 5.285 l6.7378 0 l0 -5.2834 c0 -0.2444 -0.1898 -0.4634 -0.48122 -0.4634 l-0.51801 0 c-0.093008 0 -0.15781 -0.064804 -0.15781 -0.15381 c0 -0.093204 0.064804 -0.15801 0.15781 -0.15801 l3.702 0 c0.093008 0 0.15781 0.064804 0.15781 0.15801 c0 0.089004 -0.064804 0.15381 -0.15781 0.15381 l-0.51801 0 c-0.2906 0 -0.48122 0.219 -0.48122 0.4618 l0 11.631 c0 0.2436 0.1898 0.4636 0.48122 0.4636 l0.51801 0 z M123.12 6.82 l8.4376 0.000019531 l0 3.4848 c0 0.093204 -0.064804 0.15801 -0.15781 0.15801 c-0.089004 0 -0.15381 -0.064804 -0.15381 -0.15801 l0 -0.80961 c0 -1.38 -0.82 -2.3634 -2.46 -2.3634 l-2.4822 0 c-0.2906 0 -0.48122 0.219 -0.48122 0.4618 l0 5.3726 l1.65 0 c1.6304 0 1.8112 -0.5676 1.8112 -1.4958 l0 -0.18279 c0 -0.089004 0.069004 -0.15801 0.15801 -0.15801 s0.15801 0.069004 0.15801 0.15801 l0 3.6772 c0 0.089004 -0.069004 0.15801 -0.15801 0.15801 s-0.15801 -0.064804 -0.15801 -0.17041 l0 -0.19859 c0 -0.8918 -0.1724 -1.4676 -1.811 -1.4676 l-1.65 0 l0 5.9386 c0 0.2436 0.1898 0.4636 0.48122 0.4636 l1.1172 0 c0.093204 0 0.15801 0.064804 0.15801 0.15801 c0 0.089004 -0.064804 0.15381 -0.15801 0.15381 l-4.3012 0 c-0.093008 0 -0.15781 -0.064804 -0.15781 -0.15801 c0 -0.089004 0.064804 -0.15381 0.15781 -0.15381 l0.51801 0 c0.2906 0 0.48122 -0.2178 0.48122 -0.4618 l0 -11.631 c0 -0.2444 -0.1898 -0.4634 -0.48122 -0.4634 l-0.51801 0 c-0.093008 0 -0.15781 -0.064804 -0.15781 -0.15381 c0 -0.093204 0.064804 -0.15801 0.15781 -0.15801 z M139.89440000000002 6.695 c3.7924 0 5.998 2.8256 5.998 6.6456 s-2.2056 6.7882 -5.998 6.7882 c-3.7966 0 -5.998 -2.9682 -5.998 -6.7882 s2.2014 -6.6456 5.998 -6.6456 z M139.89440000000002 19.78558 c3.0958 0 4.1888 -3.0848 4.1888 -6.4448 s-1.093 -6.302 -4.1888 -6.302 s-4.1888 2.942 -4.1888 6.302 s1.093 6.4448 4.1888 6.4448 z M158.31600000000003 19.1628 c0.084804 0 0.13701 0.060606 0.13701 0.14121 c0 0.2382 -0.7188 0.82282 -1.6434 0.82282 c-3.9444 0 -0.1292 -6.491 -5.642 -6.491 l-0.70439 0 l0 5.589 c0 0.2436 0.1898 0.4636 0.48122 0.4636 l0.51801 0 c0.093008 0 0.15781 0.064804 0.15781 0.15381 c0 0.093204 -0.064804 0.15801 -0.15781 0.15801 l-3.702 0 c-0.093008 0 -0.15781 -0.064804 -0.15781 -0.15801 c0 -0.089004 0.064804 -0.15381 0.15781 -0.15381 l0.51801 0 c0.2906 0 0.48122 -0.2178 0.48122 -0.4618 l0 -11.631 c0 -0.2444 -0.1898 -0.4634 -0.48122 -0.4634 l-0.51801 0 c-0.093008 0 -0.15781 -0.064804 -0.15781 -0.15381 c0 -0.093204 0.064804 -0.15801 0.15781 -0.15801 l4.3834 0 c2.651 0 4.442 1.042 4.442 3.162 c0 1.87 -1.4616 3.1526 -3.9212 3.472 c5.22 0.72 2.6854 6.175 4.6562 6.175 c0.6186 0 0.802 -0.4662 0.9952 -0.4662 z M150.46300000000002 13.32 l1.0738 0.00019531 c2.4718 0 3.269 -1.758 3.269 -3.3132 c0 -1.7808 -0.8594 -2.8752 -3.1138 -2.8752 l-0.74779 0 c-0.2906 0 -0.48122 0.219 -0.48122 0.4618 l0 5.7264 z M169.76160000000002 13.170200000000001 c2.7842 0.14119 4.279 1.1995 4.279 3.1658 c0 2.3842 -1.9048 3.6642 -5.1014 3.6642 l-5.0792 0 c-0.093008 0 -0.15781 -0.064804 -0.15781 -0.15801 c0 -0.089004 0.064804 -0.15381 0.15781 -0.15381 l0.51801 0 c0.2972 0 0.48202 -0.229 0.48202 -0.478 l0 -11.601 c0 -0.249 -0.1848 -0.478 -0.48202 -0.478 l-0.51801 0 c-0.093008 0 -0.15781 -0.064804 -0.15781 -0.15381 c0 -0.093204 0.064804 -0.15801 0.15781 -0.15801 l4.6676 0 c2.4724 0 4.6544 0.8428 4.6544 3.198 c0 1.5352 -1.1062 2.8332 -3.4204 3.1522 z M166.5654 7.609999999999999 l0.00019531 5.4886 l1.8718 0 c1.6 0 2.9392 -1.2642 2.9392 -3.0138 c0 -1.664 -0.8332 -2.9488 -2.965 -2.9526 l-1.3724 0 c-0.2902 0 -0.47378 0.2322 -0.47378 0.47782 z M168.8126 19.68866 c2.34 0 3.4192 -1.4684 3.4192 -3.3402 c0 -1.7282 -1.1772 -2.9302 -3.4192 -2.9302 l-2.2462 0 l0 5.7924 c0 0.249 0.1848 0.478 0.48202 0.478 l1.7642 0 z M187.19400000000002 6.82 c0.093204 0 0.15809 0.064844 0.15809 0.15385 c0 0.093008 -0.064804 0.15781 -0.15801 0.15781 l-0.51801 0 c-0.2972 0 -0.48202 0.229 -0.48202 0.478 l0 7.6876 c0 3.5856 -2.1406 4.8318 -4.6296 4.8318 c-2.0366 0 -4.7248 -0.878 -4.7248 -4.8952 l0 -7.6242 c0 -0.249 -0.1848 -0.478 -0.48202 -0.478 l-0.51801 0 c-0.093008 0 -0.15781 -0.064804 -0.15781 -0.15381 c0 -0.093204 0.064804 -0.15801 0.15781 -0.15801 l3.7028 0 c0.093008 0 0.15781 0.064804 0.15781 0.15801 c0 0.089004 -0.064804 0.15381 -0.15781 0.15381 l-0.51801 0 c-0.2972 0 -0.48202 0.229 -0.48202 0.478 l0 7.9076 c0 3.1476 1.5538 4.1496 3.4386 4.1496 c2.0592 0 3.8682 -1.1882 3.8682 -4.324 l0 -7.7332 c0 -0.249 -0.1848 -0.478 -0.48202 -0.478 l-0.51801 0 c-0.093008 0 -0.15781 -0.064804 -0.15781 -0.15781 c0 -0.089004 0.064804 -0.15381 0.15781 -0.15381 l2.3448 0 z M192.9662 20.129 c-2.3166 0 -4.0752 -1.3068 -4.0752 -2.8026 c0 -0.7228 0.391 -1.1594 0.87298 -1.1594 c0.3704 0 0.8042 0.2456 0.8042 0.7642 c0 0.649 -0.7158 0.771 -0.7158 1.271 c0 0.9118 1.7248 1.5794 2.9482 1.5794 c1.9634 0 3.5116 -1.0248 3.5116 -2.8716 c0 -3.653 -7.129 -2.3648 -7.129 -6.904 c0 -1.7704 1.4062 -3.3146 4.1862 -3.3146 c2.2338 0 4.038 1.2214 4.038 2.7008 c0 0.7352 -0.391 1.1758 -0.869 1.1758 c-0.3744 0 -0.8082 -0.2496 -0.8082 -0.7682 c0 -0.6656 0.7118 -0.7546 0.7118 -1.2546 c0 -0.8994 -1.7248 -1.5062 -2.944 -1.5062 c-1.52 0 -3.1614 0.5406 -3.1614 2.5212 c0 3.2952 7.3276 2.1958 7.3276 6.9206 c0 1.6172 -1.4186 3.6482 -4.698 3.6482 z M209.85299999999998 6.82 c0.089004 0 0.15338 0.064804 0.15338 0.15381 c0 0.093008 -0.064804 0.15781 -0.15381 0.15781 l-0.4152 0 c-0.309 0 -0.5746 0.169 -0.7112 0.4656 l-3.378 6.5714 l0 5.0416 c0 0.249 0.1848 0.478 0.48202 0.478 l0.51801 0 c0.093008 0 0.15781 0.064804 0.15781 0.15381 c0 0.093204 -0.064804 0.15801 -0.15781 0.15801 l-3.7028 0 c-0.093008 0 -0.15781 -0.064804 -0.15781 -0.15801 c0 -0.089004 0.064804 -0.15381 0.15801 -0.15381 l0.51801 0 c0.2972 0 0.48202 -0.229 0.48202 -0.478 l0 -4.6724 l-3.6242 -6.9408 c-0.1366 -0.249 -0.3048 -0.4656 -0.7248 -0.4656 l-0.32 0 c-0.093204 0 -0.15801 -0.064804 -0.15801 -0.15781 c0 -0.089004 0.064804 -0.15381 0.15801 -0.15381 l3.84 0 c0.089004 0 0.15381 0.064804 0.15381 0.15381 c0 0.093008 -0.064804 0.15781 -0.15381 0.15781 l-0.53721 0 c-0.3426 0 -0.422 0.2192 -0.2938 0.4656 l3.1638 6.2382 l3.1798 -6.2382 c0.11699 -0.2248 0.019395 -0.4654 -0.353 -0.4654 l-0.42619 0 c-0.093008 0 -0.15781 -0.064804 -0.15781 -0.15781 c0 -0.089004 0.064804 -0.15381 0.15801 -0.15381 l2.3028 0 z"></path></g><g id="SvgjsG1126" featureKey="inlineSymbolFeature-0" transform="matrix(0.11252124121157964,0,0,0.11252124121157964,259,-9.003278879780293)" fill="#111111"><title xmlns="http://www.w3.org/2000/svg">11. sourdough, bake, bakery, bread, art</title><path xmlns="http://www.w3.org/2000/svg" d="M456.619,171.175c-37.85-32.991-92.335-50.656-157.709-51.164L253.121,81.854a8,8,0,0,0-10.778,11.8c3.771,3.772,5.952,9.863,6.585,18.025-68.74-2.172-122.627,21.684-156.152,42.524-7.011,4.358-13.423,8.745-19.223,13.006-24.662-6.783-43.813,1.06-44.657,1.415l0,0a8,8,0,0,0-4.828,6.32l-7.8,59.009C5.472,253.754,0,274.618,0,296c0,46.7,26.109,81.082,77.6,102.2C119.36,415.318,179.383,424,256,424s136.64-8.682,178.4-25.8C485.891,377.082,512,342.7,512,296,512,246.634,492.332,202.3,456.619,171.175ZM387.66,238.889s-43.446,25.931-67.66-9.7C320,229.187,363.446,203.256,387.66,238.889ZM368,189.38s39.972-31.02,68.338,1.4C436.338,190.785,396.366,221.8,368,189.38Zm-20.318,89.433S304.3,304.845,280,269.268C280,269.268,323.386,243.237,347.682,278.813ZM320,320c0,40-72,24-72,24C288,288,320,320,320,320Zm65.563-8s22.071,45.529-15.525,66.566C370.038,378.566,347.967,333.037,385.563,312ZM424.7,271.125s33.084,38.281,2.2,68.317C426.9,339.441,393.816,301.16,424.7,271.125ZM464.622,232s33.084,38.281,2.2,68.317C466.822,300.317,433.737,262.036,464.622,232Zm-116.2,86.667-8.845-13.333c.929-.617,90.759-60.81,109.324-119.6a148.563,148.563,0,0,1,12.37,12.76C436.385,259.76,352.248,316.129,348.422,318.667Zm-247.2-150.873c31.637-19.667,82.47-42.191,147.276-40.12A185.616,185.616,0,0,1,243.992,152H216v16h23.55c-4.045,13.25-9.347,27.916-15.9,43.831-16.388,39.821-36.1,77-43.559,90.688a357.255,357.255,0,0,1-52.961-21.345c6.324-11.376,20.037-17.826,20.2-17.9L144,256l-3.311-7.283c-.883.4-18.693,8.668-27.645,24.9-14.557-8.335-29.112-18.44-41.357-30.411a187.457,187.457,0,0,1,72.164-55.112c23.231-10.043,40.858-12.12,41.034-12.139L184,168l-.871-7.953c-3,.329-71.32,8.51-122.337,71.169a102.669,102.669,0,0,1-12.779-20.2C53.645,204.833,71.953,185.99,101.224,167.794ZM56.742,180.536c-6.083,5.2-10.988,9.846-14.672,13.538A79.516,79.516,0,0,1,40.23,181.85,58.331,58.331,0,0,1,56.742,180.536Z"></path><path xmlns="http://www.w3.org/2000/svg" d="M141.657,237.657C147.681,231.633,167.03,216,184,216V200c-27,0-52.581,25.268-53.657,26.343Z"></path></g><g id="SvgjsG1127" featureKey="nameRightFeature-0" transform="matrix(1.1433411190880103,0,0,1.1433411190880103,330.9834990528926,4.34533210181332)" fill="#111111"><path d="M14.841999999999999 10.4828 c0 2.38 -1.8988 4.0814 -4.8084 4.0814 l-1.9106 0 l0 4.6606 c0 0.2436 0.1898 0.4636 0.48122 0.4636 l1.0062 0 c0.093008 0 0.15781 0.064804 0.15781 0.15801 c0 0.089004 -0.064804 0.15381 -0.15801 0.15381 l-4.1902 0 c-0.093008 0 -0.15781 -0.064804 -0.15781 -0.15801 c0 -0.089004 0.064804 -0.15381 0.15781 -0.15381 l0.51801 0 c0.2906 0 0.48122 -0.2178 0.48122 -0.4618 l0 -11.631 c0 -0.2444 -0.1898 -0.4634 -0.48122 -0.4634 l-0.51801 0 c-0.093008 0 -0.15781 -0.064804 -0.15781 -0.15381 c0 -0.093204 0.064804 -0.15801 0.15781 -0.15801 l4.6138 0 c2.9096 0 4.8082 1.4828 4.8082 3.6628 z M8.123 14.2524 l1.5476 0 c2.1772 0 3.3752 -1.6096 3.3752 -3.7696 c0 -1.82 -0.998 -3.351 -3.3752 -3.351 l-1.0664 0 c-0.2906 0 -0.48122 0.219 -0.48122 0.4618 l0 6.6588 z M25.348999999999997 16.3572 c0.089004 0 0.154 0.065234 0.154 0.15844 l0 3.4848 l-9.002 0 c-0.093008 0 -0.15781 -0.064804 -0.15781 -0.15801 c0 -0.089004 0.064804 -0.15381 0.15781 -0.15381 l0.51801 0 c0.2906 0 0.48122 -0.219 0.48122 -0.4618 l0 -11.631 c0 -0.2436 -0.1898 -0.4636 -0.48122 -0.4636 l-0.51801 0 c-0.093008 0 -0.15781 -0.064804 -0.15781 -0.15381 c0 -0.093204 0.064804 -0.15801 0.15781 -0.15801 l8.9234 0 l0 3.4848 c0 0.093204 -0.064804 0.15801 -0.15781 0.15801 c-0.089004 0 -0.15381 -0.064804 -0.15381 -0.15801 l0 -0.80961 c0 -1.38 -0.82 -2.3634 -2.46 -2.3634 l-2.9678 0 c-0.2906 0 -0.48122 0.2178 -0.48122 0.4618 l0 5.3726 l1.5878 0 c1.6304 0 1.811 -0.5676 1.811 -1.4958 l0 -0.18279 c0 -0.089004 0.069004 -0.15801 0.15801 -0.15801 s0.15801 0.069004 0.15801 0.15801 l0 3.6772 c0 0.089004 -0.069004 0.15801 -0.15801 0.15801 s-0.15801 -0.064804 -0.15801 -0.17041 l0 -0.19859 c0 -0.8918 -0.1724 -1.4676 -1.811 -1.4676 l-1.5878 0 l0 5.9386 c0 0.2444 0.1898 0.4634 0.48122 0.4634 l3.0462 0 c1.64 0 2.46 -0.9834 2.46 -2.3634 l0 -0.80961 c0 -0.093204 0.064804 -0.15801 0.15781 -0.15801 z M34.154399999999995 6.695 c3.7924 0 5.998 2.8256 5.998 6.6456 s-2.2056 6.7882 -5.998 6.7882 c-3.7966 0 -5.998 -2.9682 -5.998 -6.7882 s2.2014 -6.6456 5.998 -6.6456 z M34.154399999999995 19.78558 c3.0958 0 4.1888 -3.0848 4.1888 -6.4448 s-1.093 -6.302 -4.1888 -6.302 s-4.1888 2.942 -4.1888 6.302 s1.093 6.4448 4.1888 6.4448 z M51.44199999999999 10.4828 c0 2.38 -1.8988 4.0814 -4.8084 4.0814 l-1.9106 0 l0 4.6606 c0 0.2436 0.1898 0.4636 0.48122 0.4636 l1.0062 0 c0.093008 0 0.15781 0.064804 0.15781 0.15801 c0 0.089004 -0.064804 0.15381 -0.15801 0.15381 l-4.1902 0 c-0.093008 0 -0.15781 -0.064804 -0.15781 -0.15801 c0 -0.089004 0.064804 -0.15381 0.15781 -0.15381 l0.51801 0 c0.2906 0 0.48122 -0.2178 0.48122 -0.4618 l0 -11.631 c0 -0.2444 -0.1898 -0.4634 -0.48122 -0.4634 l-0.51801 0 c-0.093008 0 -0.15781 -0.064804 -0.15781 -0.15381 c0 -0.093204 0.064804 -0.15801 0.15781 -0.15801 l4.6138 0 c2.9096 0 4.8082 1.4828 4.8082 3.6628 z M44.72299999999999 14.2524 l1.5476 0 c2.1772 0 3.3752 -1.6096 3.3752 -3.7696 c0 -1.82 -0.998 -3.351 -3.3752 -3.351 l-1.0664 0 c-0.2906 0 -0.48122 0.219 -0.48122 0.4618 l0 6.6588 z M61.550999999999995 16.5158 c0.089004 0 0.154 0.06463 0.154 0.15783 l0 3.3262 l-8.604 0 c-0.093008 0 -0.15781 -0.064804 -0.15781 -0.15801 c0 -0.089004 0.064804 -0.15381 0.15781 -0.15381 l0.51801 0 c0.2906 0 0.48122 -0.2178 0.48122 -0.4618 l0 -11.631 c0 -0.2444 -0.1898 -0.4634 -0.48122 -0.4634 l-0.51801 0 c-0.093008 0 -0.15781 -0.064804 -0.15781 -0.15381 c0 -0.093204 0.064804 -0.15801 0.15781 -0.15801 l3.702 0 c0.093008 0 0.15781 0.064804 0.15781 0.15801 c0 0.089004 -0.064804 0.15381 -0.15781 0.15381 l-0.51801 0 c-0.2906 0 -0.48122 0.219 -0.48122 0.4618 l0 11.631 c0 0.2436 0.1898 0.4636 0.48122 0.4636 l2.6482 0 c1.6276 0 2.46 -1.3048 2.46 -2.6516 l0 -0.36279 c0 -0.093204 0.064804 -0.15801 0.15781 -0.15801 z M71.589 16.3572 c0.089004 0 0.154 0.065234 0.154 0.15844 l0 3.4848 l-9.002 0 c-0.093008 0 -0.15781 -0.064804 -0.15781 -0.15801 c0 -0.089004 0.064804 -0.15381 0.15781 -0.15381 l0.51801 0 c0.2906 0 0.48122 -0.219 0.48122 -0.4618 l0 -11.631 c0 -0.2436 -0.1898 -0.4636 -0.48122 -0.4636 l-0.51801 0 c-0.093008 0 -0.15781 -0.064804 -0.15781 -0.15381 c0 -0.093204 0.064804 -0.15801 0.15781 -0.15801 l8.9234 0 l0 3.4848 c0 0.093204 -0.064804 0.15801 -0.15781 0.15801 c-0.089004 0 -0.15381 -0.064804 -0.15381 -0.15801 l0 -0.80961 c0 -1.38 -0.82 -2.3634 -2.46 -2.3634 l-2.9678 0 c-0.2906 0 -0.48122 0.2178 -0.48122 0.4618 l0 5.3726 l1.5878 0 c1.6304 0 1.811 -0.5676 1.811 -1.4958 l0 -0.18279 c0 -0.089004 0.069004 -0.15801 0.15801 -0.15801 s0.15801 0.069004 0.15801 0.15801 l0 3.6772 c0 0.089004 -0.069004 0.15801 -0.15801 0.15801 s-0.15801 -0.064804 -0.15801 -0.17041 l0 -0.19859 c0 -0.8918 -0.1724 -1.4676 -1.811 -1.4676 l-1.5878 0 l0 5.9386 c0 0.2444 0.1898 0.4634 0.48122 0.4634 l3.0462 0 c1.64 0 2.46 -0.9834 2.46 -2.3634 l0 -0.80961 c0 -0.093204 0.064804 -0.15801 0.15781 -0.15801 z"></path></g>
			</g>
		</svg>
	