<svg class="logo-divider" xmlns="http://www.w3.org/2000/svg" viewBox="0 80 512 344" max-height="30px">
  <g id="bread-icon" fill="#ebd896">
      <path d="M456.619,171.175c-37.85-32.991-92.335-50.656-157.709-51.164L253.121,81.854a8,8,0,0,0-10.778,11.8c3.771,3.772,5.952,9.863,6.585,18.025-68.74-2.172-122.627,21.684-156.152,42.524-7.011,4.358-13.423,8.745-19.223,13.006-24.662-6.783-43.813,1.06-44.657,1.415l0,0a8,8,0,0,0-4.828,6.32l-7.8,59.009C5.472,253.754,0,274.618,0,296c0,46.7,26.109,81.082,77.6,102.2C119.36,415.318,179.383,424,256,424s136.64-8.682,178.4-25.8C485.891,377.082,512,342.7,512,296,512,246.634,492.332,202.3,456.619,171.175ZM387.66,238.889s-43.446,25.931-67.66-9.7C320,229.187,363.446,203.256,387.66,238.889ZM368,189.38s39.972-31.02,68.338,1.4C436.338,190.785,396.366,221.8,368,189.38Zm-20.318,89.433S304.3,304.845,280,269.268C280,269.268,323.386,243.237,347.682,278.813ZM320,320c0,40-72,24-72,24C288,288,320,320,320,320Zm65.563-8s22.071,45.529-15.525,66.566C370.038,378.566,347.967,333.037,385.563,312ZM424.7,271.125s33.084,38.281,2.2,68.317C426.9,339.441,393.816,301.16,424.7,271.125ZM464.622,232s33.084,38.281,2.2,68.317C466.822,300.317,433.737,262.036,464.622,232Zm-116.2,86.667-8.845-13.333c.929-.617,90.759-60.81,109.324-119.6a148.563,148.563,0,0,1,12.37,12.76C436.385,259.76,352.248,316.129,348.422,318.667Zm-247.2-150.873c31.637-19.667,82.47-42.191,147.276-40.12A185.616,185.616,0,0,1,243.992,152H216v16h23.55c-4.045,13.25-9.347,27.916-15.9,43.831-16.388,39.821-36.1,77-43.559,90.688a357.255,357.255,0,0,1-52.961-21.345c6.324-11.376,20.037-17.826,20.2-17.9L144,256l-3.311-7.283c-.883.4-18.693,8.668-27.645,24.9-14.557-8.335-29.112-18.44-41.357-30.411a187.457,187.457,0,0,1,72.164-55.112c23.231-10.043,40.858-12.12,41.034-12.139L184,168l-.871-7.953c-3,.329-71.32,8.51-122.337,71.169a102.669,102.669,0,0,1-12.779-20.2C53.645,204.833,71.953,185.99,101.224,167.794ZM56.742,180.536c-6.083,5.2-10.988,9.846-14.672,13.538A79.516,79.516,0,0,1,40.23,181.85,58.331,58.331,0,0,1,56.742,180.536Z"/>
      <path d="M141.657,237.657C147.681,231.633,167.03,216,184,216V200c-27,0-52.581,25.268-53.657,26.343Z"/>
  </g>
</svg>